<?xml version="1.0" encoding="utf-8"?>
<!-- Generator: Adobe Illustrator 17.0.0, SVG Export Plug-In . SVG Version: 6.00 Build 0)  -->
<!DOCTYPE svg PUBLIC "-//W3C//DTD SVG 1.1//EN" "http://www.w3.org/Graphics/SVG/1.1/DTD/svg11.dtd">
<svg version="1.1" id="Layer_1" xmlns="http://www.w3.org/2000/svg" xmlns:xlink="http://www.w3.org/1999/xlink" x="0px" y="0px"
	 width="256px" height="256px" viewBox="0 0 256 256" enable-background="new 0 0 256 256" xml:space="preserve">
<g>
	<linearGradient id="SVGID_1_" gradientUnits="userSpaceOnUse" x1="1.9482" y1="128.1649" x2="254.5518" y2="128.1649">
		<stop  offset="1.200000e-007" style="stop-color:#458CCA"/>
		<stop  offset="0.9997" style="stop-color:#145694"/>
	</linearGradient>
	<circle fill="url(#SVGID_1_)" cx="128.25" cy="128.165" r="126.302"/>
	<g>
		<path fill="#FFFFFF" d="M87.354,160.103c-1.455,4.079-2.207,11.777-1.713,16.11c25.817,4.06,52.613-7.334,65.72-34.837
			c-4.26-3.365-9.23-5.802-14.607-7.121C136.302,135.18,123.152,165.096,87.354,160.103z"/>
		<path fill="#FFFFFF" d="M100.732,68.204l17.683,10.209c12.897,7.298,19.434,19.696,21.686,32.958
			c6.206,1.35,10.94,3.149,16.547,6.111c-0.462-22.905-11.431-42.378-30.1-53.157l-17.682-10.209l-14.088-8.134L34.384,150.551
			l14.089,8.169l14.734,8.553c0.622-5.717,1.893-11.272,3.905-16.512l-10.506-6.129L100.732,68.204z"/>
		<path fill="#FFFFFF" d="M112.067,153.289c5.04-2.015,9.631-5.108,13.455-9.111c-0.576-0.853-1.827-2.086-3.444-5.072
			c-10.016-16.895-7.66-36.362,4.211-50.734c-4.794-5.257-13.411-9.319-13.411-9.319c-15.282,19.048-18.024,44.704-4.905,68.132
			C109.763,150.383,111.279,152.123,112.067,153.289z"/>
		<path fill="#FFFFFF" d="M161.578,46.06l-14.105,8.141l-15.995,9.42c4.982,3.73,8.769,6.723,12.778,11.406l11.374-6.752
			l44.254,76.353l-17.665,10.239c-11.595,6.72-26.087,7.336-37.818,3.235c-4.001,4.566-8.118,8.326-13.112,11.581
			c17.767,9.344,40.437,10.068,59.087-0.742l17.665-10.239l14.074-8.158L161.578,46.06z"/>
		<path fill="#FFFFFF" d="M167.812,157.292c4.163-0.987,9.7-2.983,15.095-6.456c-10.559-24.387-33.529-40.589-63.388-37.547
			c-0.116,7.183,0.44,11.287,2.107,16.119c1.026-0.073,4.369-0.224,5.413-0.207C145.422,129.505,160.967,140.191,167.812,157.292z"
			/>
		<path fill="#FFFFFF" d="M170.85,179.296l-0.252,14.608l-88.25,0.149l-0.035-20.419c-0.022-13.401,6.137-26.526,17.765-35.543
			c-1.954-5.747-3.147-11.174-3.469-17.128c-19.123,10.627-30.6,31.142-30.563,52.698l0.034,20.419l0.028,16.267l120.756-0.186
			l0.002-16.286l0.213-19.557C181.821,176.649,176.393,178.409,170.85,179.296z"/>
	</g>
</g>
</svg>
